<?xml version="1.0" encoding="UTF-8" standalone="no"?>
<!-- Created with Inkscape (http://www.inkscape.org/) -->

<svg
   xmlns:dc="http://purl.org/dc/elements/1.1/"
   xmlns:cc="http://creativecommons.org/ns#"
   xmlns:rdf="http://www.w3.org/1999/02/22-rdf-syntax-ns#"
   xmlns:svg="http://www.w3.org/2000/svg"
   xmlns="http://www.w3.org/2000/svg"
   xmlns:sodipodi="http://sodipodi.sourceforge.net/DTD/sodipodi-0.dtd"
   xmlns:inkscape="http://www.inkscape.org/namespaces/inkscape"
   width="42.005531mm"
   height="42.005531mm"
   viewBox="0 0 42.005531 42.005531"
   version="1.1"
   id="svg8"
   inkscape:version="0.92.4 (unknown)"
   sodipodi:docname="banzoku.svg">
  <defs
     id="defs2" />
  <sodipodi:namedview
     id="base"
     pagecolor="#ffffff"
     bordercolor="#666666"
     borderopacity="1.0"
     inkscape:pageopacity="0.0"
     inkscape:pageshadow="2"
     inkscape:zoom="2.8284271"
     inkscape:cx="87.632377"
     inkscape:cy="79.232262"
     inkscape:document-units="mm"
     inkscape:current-layer="layer1"
     showgrid="false"
     inkscape:window-width="1366"
     inkscape:window-height="725"
     inkscape:window-x="0"
     inkscape:window-y="0"
     inkscape:window-maximized="1" />
  <metadata
     id="metadata5">
    <rdf:RDF>
      <cc:Work
         rdf:about="">
        <dc:format>image/svg+xml</dc:format>
        <dc:type
           rdf:resource="http://purl.org/dc/dcmitype/StillImage" />
        <dc:title></dc:title>
      </cc:Work>
    </rdf:RDF>
  </metadata>
  <g
     inkscape:label="Layer 1"
     inkscape:groupmode="layer"
     id="layer1"
     transform="translate(-393.84312,-91.37021)">
    <rect
       style="opacity:1;fill:#ffffff;fill-opacity:1;stroke:#ff0000;stroke-width:2.10337615;stroke-linecap:square;stroke-linejoin:bevel;stroke-miterlimit:4;stroke-dasharray:none;stroke-dashoffset:0;stroke-opacity:1;paint-order:stroke markers fill"
       id="rect1026"
       width="39.902157"
       height="39.902157"
       x="394.89481"
       y="92.421898"
       inkscape:export-filename="/home/iason/2.png"
       inkscape:export-xdpi="282.33063"
       inkscape:export-ydpi="282.33063" />
    <g
       transform="translate(1.7100278,12.863919)"
       id="g878"
       style="font-style:normal;font-variant:normal;font-weight:normal;font-stretch:normal;font-size:9.8777771px;line-height:1.25;font-family:Arvo;-inkscape-font-specification:Arvo;letter-spacing:0px;word-spacing:0px;opacity:0.31100003;fill:#4d4d4d;fill-opacity:1;stroke:none;stroke-width:0.26458332"
       aria-label="蛮族">
      <path
         inkscape:connector-curvature="0"
         id="path874"
         style="fill:#4d4d4d;stroke-width:0.26458332"
         d="m 332.33885,133.11619 v 2.27189 h -0.51364 q 0.73095,0.91863 1.43228,1.92616 l -0.60255,0.34573 q -0.40499,-0.57291 -0.67169,-0.90876 -3.81282,0.54328 -7.40833,0.68157 l -0.0395,-0.64206 q 1.75824,-0.0691 3.84245,-0.25682 v -1.14582 h -2.46944 v 0.5334 h -0.74083 v -2.80529 h 3.21027 v -0.52352 h 0.75072 v 0.52352 z m -1.70885,-2.43981 0.58279,-0.39511 q 1.11618,0.9779 1.93604,2.12372 l -0.60254,0.38523 q -0.75072,-1.05692 -1.91629,-2.11384 z m -5.67972,2.16323 -0.58279,-0.45438 q 1.11619,-0.87912 1.6891,-2.08421 l 0.67169,0.27658 q -0.58279,1.30387 -1.778,2.26201 z m 4.59316,-1.44215 v -1.37302 h -1.20509 q -0.079,1.01742 -0.48401,1.70886 -0.40499,0.69144 -1.23472,1.26436 l -0.55316,-0.47414 q 0.75072,-0.50376 1.10632,-1.07668 0.3556,-0.57291 0.43462,-1.4224 h -3.08187 v -0.64205 h 3.83258 v -0.81986 h 0.79022 v 0.81986 h 3.83258 v 0.64205 h -2.69663 v 1.34338 q 0,0.69145 -0.14817,0.86925 -0.14817,0.1778 -0.74083,0.1778 -0.19756,0 -0.95815,-0.0494 l -0.0395,-0.63218 q 0.64206,0.0494 0.81986,0.0494 0.24694,0 0.28645,-0.0494 0.0395,-0.0494 0.0395,-0.33584 z m 1.99531,4.78084 q -0.27658,-0.33584 -0.40499,-0.49389 l 0.46426,-0.29633 h -2.46944 v 1.0668 q 1.41252,-0.13829 2.41017,-0.27658 z m -2.41017,-1.38289 h 2.46944 v -1.08655 h -2.46944 z m -0.75072,0 v -1.08655 h -2.46944 v 1.08655 z" />
      <path
         inkscape:connector-curvature="0"
         id="path876"
         style="fill:#4d4d4d;stroke-width:0.26458332"
         d="m 337.4753,131.87159 q 0,2.53859 -0.0988,3.72392 -0.0889,1.18533 -0.2667,1.48167 -0.1778,0.30621 -0.57291,0.30621 -0.33585,0 -1.12607,-0.0988 v -0.7112 q 0.57291,0.0988 0.82973,0.0988 0.11854,0 0.18768,-0.0593 0.0692,-0.0593 0.13829,-0.28645 0.0692,-0.23707 0.10866,-0.67169 0.0395,-0.43462 0.0593,-1.20509 0.0198,-0.77047 0.0198,-1.90641 h -1.12607 q -0.0988,1.84714 -0.3556,2.97321 -0.25682,1.12607 -0.78034,2.03482 l -0.57291,-0.51364 q 0.52352,-0.96803 0.76059,-2.35091 0.23706,-1.38289 0.24694,-4.0894 h -0.90876 v -0.67169 h 1.45204 v -1.31375 h 0.76059 v 1.31375 h 1.54093 v 0.67169 h -2.10397 q 0,0.48401 -0.0197,1.27423 z m 0.38523,2.63737 v -0.67169 h 2.37067 q 0.01,-0.079 0.01,-0.24695 v -1.3335 h -0.83961 q -0.50376,0.70132 -1.02729,1.17546 l -0.54327,-0.45438 q 1.05692,-0.95814 1.71873,-2.33116 l 0.67169,0.20744 q -0.1778,0.37535 -0.38523,0.74083 h 3.06211 v 0.66181 h -1.87678 v 1.3335 0.24695 h 2.07433 v 0.67169 h -1.97555 q 0.36547,1.62983 2.1336,2.39042 l -0.30621,0.68156 q -0.78035,-0.30621 -1.39277,-0.93838 -0.61242,-0.63218 -0.93839,-1.44216 -0.42474,0.82973 -1.19521,1.46191 -0.77047,0.63218 -1.70886,0.92851 l -0.28645,-0.69144 q 2.18299,-0.67169 2.68675,-2.39042 z m -0.59267,-3.04236 q 1.13595,-1.23472 1.75825,-2.94358 l 0.70132,0.16792 q -0.0988,0.28646 -0.33584,0.83962 h 3.70416 v 0.66181 h -4.03013 q -0.49389,0.89887 -1.18533,1.66934 z" />
    </g>
    <text
       xml:space="preserve"
       style="font-style:normal;font-variant:normal;font-weight:normal;font-stretch:normal;font-size:9.8777771px;line-height:1.25;font-family:Arvo;-inkscape-font-specification:Arvo;letter-spacing:0px;word-spacing:0px;fill:#000000;fill-opacity:1;stroke:none;stroke-width:0.26458332"
       x="239.81152"
       y="104.37498"
       id="text817"><tspan
         sodipodi:role="line"
         id="tspan815"
         x="239.81152"
         y="104.37498"
         style="font-style:normal;font-variant:normal;font-weight:normal;font-stretch:normal;font-family:'VL PGothic';-inkscape-font-specification:'VL PGothic';stroke-width:0.26458332">banzoku (savage tribe  蛮族)</tspan></text>
    <text
       id="text821"
       y="136.55423"
       x="241.6824"
       style="font-style:normal;font-variant:normal;font-weight:normal;font-stretch:normal;font-size:9.8777771px;line-height:1.25;font-family:Arvo;-inkscape-font-specification:Arvo;letter-spacing:0px;word-spacing:0px;fill:#000000;fill-opacity:1;stroke:none;stroke-width:0.26458332"
       xml:space="preserve"><tspan
         style="stroke-width:0.26458332"
         y="136.55423"
         x="241.6824"
         id="tspan819"
         sodipodi:role="line">蛮族</tspan></text>
    <text
       xml:space="preserve"
       style="font-style:normal;font-variant:normal;font-weight:normal;font-stretch:normal;font-size:9.8777771px;line-height:1.25;font-family:Arvo;-inkscape-font-specification:Arvo;letter-spacing:0px;word-spacing:0px;fill:#000000;fill-opacity:1;stroke:none;stroke-width:0.26458332"
       x="244.48874"
       y="160.50159"
       id="text844"><tspan
         sodipodi:role="line"
         id="tspan842"
         x="244.48874"
         y="160.50159"
         style="stroke-width:0.26458332">蛮族</tspan></text>
    <g
       id="g864">
      <g
         transform="translate(0.35015247)"
         id="text848"
         style="font-style:normal;font-variant:normal;font-weight:normal;font-stretch:normal;font-size:9.8777771px;line-height:1.25;font-family:Arvo;-inkscape-font-specification:Arvo;letter-spacing:0px;word-spacing:0px;opacity:0.31100003;fill:#4d4d4d;fill-opacity:1;stroke:none;stroke-width:0.26458332"
         aria-label="蛮族">
        <path
           inkscape:connector-curvature="0"
           id="path850"
           style="fill:#4d4d4d;stroke-width:0.26458332"
           d="m 332.33885,133.11619 v 2.27189 h -0.51364 q 0.73095,0.91863 1.43228,1.92616 l -0.60255,0.34573 q -0.40499,-0.57291 -0.67169,-0.90876 -3.81282,0.54328 -7.40833,0.68157 l -0.0395,-0.64206 q 1.75824,-0.0691 3.84245,-0.25682 v -1.14582 h -2.46944 v 0.5334 h -0.74083 v -2.80529 h 3.21027 v -0.52352 h 0.75072 v 0.52352 z m -1.70885,-2.43981 0.58279,-0.39511 q 1.11618,0.9779 1.93604,2.12372 l -0.60254,0.38523 q -0.75072,-1.05692 -1.91629,-2.11384 z m -5.67972,2.16323 -0.58279,-0.45438 q 1.11619,-0.87912 1.6891,-2.08421 l 0.67169,0.27658 q -0.58279,1.30387 -1.778,2.26201 z m 4.59316,-1.44215 v -1.37302 h -1.20509 q -0.079,1.01742 -0.48401,1.70886 -0.40499,0.69144 -1.23472,1.26436 l -0.55316,-0.47414 q 0.75072,-0.50376 1.10632,-1.07668 0.3556,-0.57291 0.43462,-1.4224 h -3.08187 v -0.64205 h 3.83258 v -0.81986 h 0.79022 v 0.81986 h 3.83258 v 0.64205 h -2.69663 v 1.34338 q 0,0.69145 -0.14817,0.86925 -0.14817,0.1778 -0.74083,0.1778 -0.19756,0 -0.95815,-0.0494 l -0.0395,-0.63218 q 0.64206,0.0494 0.81986,0.0494 0.24694,0 0.28645,-0.0494 0.0395,-0.0494 0.0395,-0.33584 z m 1.99531,4.78084 q -0.27658,-0.33584 -0.40499,-0.49389 l 0.46426,-0.29633 h -2.46944 v 1.0668 q 1.41252,-0.13829 2.41017,-0.27658 z m -2.41017,-1.38289 h 2.46944 v -1.08655 h -2.46944 z m -0.75072,0 v -1.08655 h -2.46944 v 1.08655 z" />
        <path
           inkscape:connector-curvature="0"
           id="path852"
           style="fill:#4d4d4d;stroke-width:0.26458332"
           d="m 337.4753,131.87159 q 0,2.53859 -0.0988,3.72392 -0.0889,1.18533 -0.2667,1.48167 -0.1778,0.30621 -0.57291,0.30621 -0.33585,0 -1.12607,-0.0988 v -0.7112 q 0.57291,0.0988 0.82973,0.0988 0.11854,0 0.18768,-0.0593 0.0692,-0.0593 0.13829,-0.28645 0.0692,-0.23707 0.10866,-0.67169 0.0395,-0.43462 0.0593,-1.20509 0.0198,-0.77047 0.0198,-1.90641 h -1.12607 q -0.0988,1.84714 -0.3556,2.97321 -0.25682,1.12607 -0.78034,2.03482 l -0.57291,-0.51364 q 0.52352,-0.96803 0.76059,-2.35091 0.23706,-1.38289 0.24694,-4.0894 h -0.90876 v -0.67169 h 1.45204 v -1.31375 h 0.76059 v 1.31375 h 1.54093 v 0.67169 h -2.10397 q 0,0.48401 -0.0197,1.27423 z m 0.38523,2.63737 v -0.67169 h 2.37067 q 0.01,-0.079 0.01,-0.24695 v -1.3335 h -0.83961 q -0.50376,0.70132 -1.02729,1.17546 l -0.54327,-0.45438 q 1.05692,-0.95814 1.71873,-2.33116 l 0.67169,0.20744 q -0.1778,0.37535 -0.38523,0.74083 h 3.06211 v 0.66181 h -1.87678 v 1.3335 0.24695 h 2.07433 v 0.67169 h -1.97555 q 0.36547,1.62983 2.1336,2.39042 l -0.30621,0.68156 q -0.78035,-0.30621 -1.39277,-0.93838 -0.61242,-0.63218 -0.93839,-1.44216 -0.42474,0.82973 -1.19521,1.46191 -0.77047,0.63218 -1.70886,0.92851 l -0.28645,-0.69144 q 2.18299,-0.67169 2.68675,-2.39042 z m -0.59267,-3.04236 q 1.13595,-1.23472 1.75825,-2.94358 l 0.70132,0.16792 q -0.0988,0.28646 -0.33584,0.83962 h 3.70416 v 0.66181 h -4.03013 q -0.49389,0.89887 -1.18533,1.66934 z" />
      </g>
      <text
         xml:space="preserve"
         style="font-style:normal;font-variant:normal;font-weight:normal;font-stretch:normal;font-size:9.8777771px;line-height:1.25;font-family:Arvo;-inkscape-font-specification:Arvo;letter-spacing:0px;word-spacing:0px;fill:#ff0000;fill-opacity:1;stroke:none;stroke-width:0.26458332"
         x="317.45331"
         y="136.18004"
         id="text857"><tspan
           sodipodi:role="line"
           id="tspan855"
           x="317.45331"
           y="136.18004"
           style="font-style:normal;font-variant:normal;font-weight:normal;font-stretch:normal;font-family:'VL Gothic';-inkscape-font-specification:'VL Gothic';fill:#ff0000;stroke-width:0.26458332">banzoku</tspan></text>
    </g>
    <text
       id="text868"
       y="90.087479"
       x="239.81152"
       style="font-style:normal;font-variant:normal;font-weight:normal;font-stretch:normal;font-size:9.8777771px;line-height:1.25;font-family:Arvo;-inkscape-font-specification:Arvo;letter-spacing:0px;word-spacing:0px;fill:#000000;fill-opacity:1;stroke:none;stroke-width:0.26458332"
       xml:space="preserve"><tspan
         style="font-style:normal;font-variant:normal;font-weight:normal;font-stretch:normal;font-family:'VL Gothic';-inkscape-font-specification:'VL Gothic';stroke-width:0.26458332"
         y="90.087479"
         x="239.81152"
         id="tspan866"
         sodipodi:role="line">banzoku (savage tribe  蛮族)</tspan></text>
    <text
       id="text872"
       y="149.51141"
       x="316.3215"
       style="font-style:normal;font-variant:normal;font-weight:normal;font-stretch:normal;font-size:9.8777771px;line-height:1.25;font-family:Arvo;-inkscape-font-specification:Arvo;letter-spacing:0px;word-spacing:0px;fill:#ff0000;fill-opacity:1;stroke:none;stroke-width:0.26458332"
       xml:space="preserve"><tspan
         style="font-style:normal;font-variant:normal;font-weight:normal;font-stretch:normal;font-family:'VL PGothic';-inkscape-font-specification:'VL PGothic';fill:#ff0000;fill-opacity:1;stroke-width:0.26458332"
         y="149.51141"
         x="316.3215"
         id="tspan870"
         sodipodi:role="line">banzoku</tspan></text>
    <path
       inkscape:connector-curvature="0"
       id="path891"
       style="font-style:normal;font-variant:normal;font-weight:normal;font-stretch:normal;font-size:9.8777771px;line-height:1.25;font-family:Arvo;-inkscape-font-specification:Arvo;letter-spacing:0px;word-spacing:0px;fill:#4d4d4d;fill-opacity:0.30980392;stroke:none;stroke-width:0.26458332"
       d="m 328.98316,162.23707 v 2.27189 h -0.51364 q 0.73095,0.91863 1.43228,1.92616 l -0.60255,0.34573 q -0.40499,-0.57291 -0.67169,-0.90876 -3.81282,0.54328 -7.40833,0.68157 l -0.0395,-0.64206 q 1.75824,-0.0691 3.84245,-0.25682 v -1.14582 h -2.46944 v 0.5334 h -0.74083 v -2.80529 h 3.21027 v -0.52352 h 0.75072 v 0.52352 z m -1.70885,-2.43981 0.58279,-0.39511 q 1.11618,0.9779 1.93604,2.12372 l -0.60254,0.38523 q -0.75072,-1.05692 -1.91629,-2.11384 z m -5.67972,2.16323 -0.58279,-0.45438 q 1.11619,-0.87912 1.6891,-2.08421 l 0.67169,0.27658 q -0.58279,1.30387 -1.778,2.26201 z m 4.59316,-1.44215 v -1.37302 h -1.20509 q -0.079,1.01742 -0.48401,1.70886 -0.40499,0.69144 -1.23472,1.26436 l -0.55316,-0.47414 q 0.75073,-0.50376 1.10632,-1.07668 0.3556,-0.57291 0.43462,-1.4224 h -3.08187 v -0.64205 h 3.83259 v -0.81986 h 0.79021 v 0.81986 h 3.83258 v 0.64205 h -2.69663 v 1.34338 q 0,0.69145 -0.14817,0.86925 -0.14817,0.1778 -0.74083,0.1778 -0.19756,0 -0.95815,-0.0494 l -0.0395,-0.63218 q 0.64207,0.0494 0.81986,0.0494 0.24694,0 0.28645,-0.0494 0.0395,-0.0494 0.0395,-0.33584 z m 1.99531,4.78084 q -0.27658,-0.33584 -0.40499,-0.49389 l 0.46427,-0.29633 h -2.46945 v 1.0668 q 1.41252,-0.13829 2.41017,-0.27658 z m -2.41017,-1.38289 h 2.46945 v -1.08655 h -2.46945 z m -0.75072,0 v -1.08655 h -2.46944 v 1.08655 z" />
    <path
       inkscape:connector-curvature="0"
       id="path893"
       style="font-style:normal;font-variant:normal;font-weight:normal;font-stretch:normal;font-size:9.8777771px;line-height:1.25;font-family:Arvo;-inkscape-font-specification:Arvo;letter-spacing:0px;word-spacing:0px;fill:#4d4d4d;fill-opacity:0.30980392;stroke:none;stroke-width:0.26458332"
       d="m 343.46743,161.0468 q 0,2.53859 -0.0988,3.72392 -0.0889,1.18533 -0.2667,1.48167 -0.1778,0.30621 -0.57291,0.30621 -0.33585,0 -1.12607,-0.0988 v -0.7112 q 0.57291,0.0988 0.82973,0.0988 0.11854,0 0.18768,-0.0593 0.0692,-0.0593 0.13829,-0.28645 0.0692,-0.23707 0.10865,-0.67169 0.0395,-0.43462 0.0593,-1.20509 0.0198,-0.77047 0.0198,-1.90641 h -1.12607 q -0.0988,1.84714 -0.3556,2.97321 -0.25682,1.12607 -0.78034,2.03482 l -0.57291,-0.51364 q 0.52352,-0.96803 0.76059,-2.35091 0.23706,-1.38289 0.24694,-4.0894 h -0.90876 v -0.67169 h 1.45204 v -1.31375 h 0.76059 v 1.31375 h 1.54093 v 0.67169 h -2.10397 q 0,0.48401 -0.0197,1.27423 z m 0.38523,2.63737 v -0.67169 h 2.37067 q 0.01,-0.079 0.01,-0.24695 v -1.3335 h -0.83961 q -0.50376,0.70132 -1.02729,1.17546 l -0.54327,-0.45438 q 1.05692,-0.95814 1.71873,-2.33116 l 0.67169,0.20744 q -0.1778,0.37535 -0.38523,0.74083 h 3.06211 v 0.66181 h -1.87678 v 1.3335 0.24695 h 2.07433 v 0.67169 h -1.97555 q 0.36547,1.62983 2.1336,2.39042 l -0.30621,0.68156 q -0.78035,-0.30621 -1.39277,-0.93838 -0.61242,-0.63218 -0.93839,-1.44216 -0.42474,0.82973 -1.19521,1.46191 -0.77047,0.63218 -1.70886,0.92851 l -0.28645,-0.69144 q 2.18299,-0.67169 2.68675,-2.39042 z m -0.59267,-3.04236 q 1.13594,-1.23472 1.75824,-2.94358 l 0.70133,0.16792 q -0.0988,0.28646 -0.33585,0.83962 h 3.70416 v 0.66181 h -4.03012 q -0.49389,0.89887 -1.18533,1.66934 z" />
    <g
       id="g928">
      <path
         d="m 318.64042,158.57735 v 2.74603 h 0.0198 q 0.6223,-0.77047 1.61995,-0.77047 0.95815,0 1.5113,0.70132 0.56304,0.69145 0.56304,1.96568 0,1.23472 -0.57292,1.9558 -0.57291,0.7112 -1.50142,0.7112 -0.98778,0 -1.65946,-0.82973 h -0.0198 l -0.01,0.73095 h -0.7112 v -7.21078 z m 2.96333,4.64256 q 0,-2.07433 -1.48166,-2.07433 -0.58279,0 -1.03717,0.40499 -0.4445,0.40498 -0.4445,0.90875 v 1.52118 q 0,0.51364 0.45438,0.91863 0.45438,0.39511 1.02729,0.39511 0.70132,0 1.08655,-0.52352 0.39511,-0.52352 0.39511,-1.55081 z"
         style="font-style:normal;font-variant:normal;font-weight:normal;font-stretch:normal;font-size:9.8777771px;line-height:1.25;font-family:'VL PGothic';-inkscape-font-specification:'VL PGothic';letter-spacing:0px;word-spacing:0px;fill:#ff0000;fill-opacity:1;stroke:none;stroke-width:0.26458332"
         id="path903"
         inkscape:connector-curvature="0" />
      <path
         d="m 326.66149,163.07174 h -0.59267 q -0.9779,0 -1.48167,0.31609 -0.49389,0.31609 -0.49389,0.889 0,0.4445 0.25683,0.72108 0.25682,0.2667 0.66181,0.2667 0.7112,0 1.17545,-0.47413 0.47414,-0.47414 0.47414,-1.25448 z m 0,-0.54327 v -0.2667 q 0,-0.60255 -0.27658,-0.83962 -0.27658,-0.24694 -0.9779,-0.24694 -0.86925,0 -1.79776,0.37536 V 160.869 q 0.889,-0.31609 1.79776,-0.31609 1.12606,0 1.56069,0.42474 0.4445,0.41487 0.4445,1.48167 v 3.32881 h -0.7112 l -0.01,-0.87912 h -0.0198 q -0.58279,0.9779 -1.82739,0.9779 -0.67168,0 -1.09643,-0.42474 -0.41487,-0.42475 -0.41487,-1.12607 0,-0.81986 0.65194,-1.31375 0.65193,-0.49388 2.08421,-0.49388 z"
         style="font-style:normal;font-variant:normal;font-weight:normal;font-stretch:normal;font-size:9.8777771px;line-height:1.25;font-family:'VL PGothic';-inkscape-font-specification:'VL PGothic';letter-spacing:0px;word-spacing:0px;fill:#ff0000;fill-opacity:1;stroke:none;stroke-width:0.26458332"
         id="path905"
         inkscape:connector-curvature="0" />
      <path
         d="m 329.59627,160.65169 0.01,0.77046 h 0.0198 q 0.72108,-0.86924 1.69898,-0.86924 0.89887,0 1.30386,0.50377 0.40499,0.50376 0.40499,1.66934 v 3.06211 h -0.74083 v -2.96333 q 0,-0.9779 -0.2667,-1.32362 -0.2667,-0.3556 -0.89888,-0.3556 -0.51364,0 -0.99765,0.47413 -0.48402,0.47413 -0.48402,0.98778 v 3.18064 h -0.76058 v -5.13644 z"
         style="font-style:normal;font-variant:normal;font-weight:normal;font-stretch:normal;font-size:9.8777771px;line-height:1.25;font-family:'VL PGothic';-inkscape-font-specification:'VL PGothic';letter-spacing:0px;word-spacing:0px;fill:#ff0000;fill-opacity:1;stroke:none;stroke-width:0.26458332"
         id="path907"
         inkscape:connector-curvature="0" />
    </g>
    <g
       id="g934">
      <path
         d="m 334.49919,160.65169 h 3.8227 v 0.59266 l -2.91394,3.93136 v 0.0198 h 2.91394 v 0.59266 h -3.8227 v -0.59266 l 2.91395,-3.93136 v -0.0198 h -2.91395 z"
         style="font-style:normal;font-variant:normal;font-weight:normal;font-stretch:normal;font-size:9.8777771px;line-height:1.25;font-family:'VL PGothic';-inkscape-font-specification:'VL PGothic';letter-spacing:0px;word-spacing:0px;fill:#ff0000;fill-opacity:1;stroke:none;stroke-width:0.26458332"
         id="path909"
         inkscape:connector-curvature="0" />
      <path
         d="m 341.7423,160.55291 q 1.11619,0 1.73849,0.70132 0.6223,0.69145 0.6223,1.96568 0,1.27423 -0.6223,1.97556 -0.6223,0.69144 -1.73849,0.69144 -1.10631,0 -1.72861,-0.70132 -0.6223,-0.70132 -0.6223,-1.96568 0,-1.26436 0.6223,-1.96568 0.6223,-0.70132 1.72861,-0.70132 z m -1.58044,2.667 q 0,2.07433 1.58044,2.07433 1.58045,0 1.58045,-2.07433 0,-2.07433 -1.58045,-2.07433 -1.58044,0 -1.58044,2.07433 z"
         style="font-style:normal;font-variant:normal;font-weight:normal;font-stretch:normal;font-size:9.8777771px;line-height:1.25;font-family:'VL PGothic';-inkscape-font-specification:'VL PGothic';letter-spacing:0px;word-spacing:0px;fill:#ff0000;fill-opacity:1;stroke:none;stroke-width:0.26458332"
         id="path911"
         inkscape:connector-curvature="0" />
      <path
         d="m 346.0937,158.57735 v 4.36598 h 0.0197 l 2.47932,-2.29164 h 0.93839 l -2.69663,2.46944 2.71639,2.667 h -0.92851 l -2.50896,-2.4892 h -0.0197 v 2.4892 h -0.76059 v -7.21078 z"
         style="font-style:normal;font-variant:normal;font-weight:normal;font-stretch:normal;font-size:9.8777771px;line-height:1.25;font-family:'VL PGothic';-inkscape-font-specification:'VL PGothic';letter-spacing:0px;word-spacing:0px;fill:#ff0000;fill-opacity:1;stroke:none;stroke-width:0.26458332"
         id="path913"
         inkscape:connector-curvature="0" />
      <path
         d="m 350.55907,160.65169 h 0.74083 v 3.09174 q 0,0.889 0.2667,1.22485 0.2667,0.32596 0.84949,0.32596 0.5334,0 1.00754,-0.45437 0.47413,-0.46426 0.47413,-1.00754 v -3.18064 h 0.76059 v 5.13644 h -0.7112 l -0.01,-0.77046 h -0.0198 q -0.69144,0.86924 -1.69897,0.86924 -0.85937,0 -1.26436,-0.47413 -0.39511,-0.47414 -0.39511,-1.57057 z"
         style="font-style:normal;font-variant:normal;font-weight:normal;font-stretch:normal;font-size:9.8777771px;line-height:1.25;font-family:'VL PGothic';-inkscape-font-specification:'VL PGothic';letter-spacing:0px;word-spacing:0px;fill:#ff0000;fill-opacity:1;stroke:none;stroke-width:0.26458332"
         id="path915"
         inkscape:connector-curvature="0" />
    </g>
    <g
       aria-label="蛮族"
       style="font-style:normal;font-variant:normal;font-weight:normal;font-stretch:normal;font-size:9.8777771px;line-height:1.25;font-family:Arvo;-inkscape-font-specification:Arvo;letter-spacing:0px;word-spacing:0px;opacity:0.31100003;fill:#4d4d4d;fill-opacity:1;stroke:none;stroke-width:0.26458332"
       id="g940"
       transform="translate(47.07903,12.02202)">
      <path
         d="m 332.33885,133.11619 v 2.27189 h -0.51364 q 0.73095,0.91863 1.43228,1.92616 l -0.60255,0.34573 q -0.40499,-0.57291 -0.67169,-0.90876 -3.81282,0.54328 -7.40833,0.68157 l -0.0395,-0.64206 q 1.75824,-0.0691 3.84245,-0.25682 v -1.14582 h -2.46944 v 0.5334 h -0.74083 v -2.80529 h 3.21027 v -0.52352 h 0.75072 v 0.52352 z m -1.70885,-2.43981 0.58279,-0.39511 q 1.11618,0.9779 1.93604,2.12372 l -0.60254,0.38523 q -0.75072,-1.05692 -1.91629,-2.11384 z m -5.67972,2.16323 -0.58279,-0.45438 q 1.11619,-0.87912 1.6891,-2.08421 l 0.67169,0.27658 q -0.58279,1.30387 -1.778,2.26201 z m 4.59316,-1.44215 v -1.37302 h -1.20509 q -0.079,1.01742 -0.48401,1.70886 -0.40499,0.69144 -1.23472,1.26436 l -0.55316,-0.47414 q 0.75072,-0.50376 1.10632,-1.07668 0.3556,-0.57291 0.43462,-1.4224 h -3.08187 v -0.64205 h 3.83258 v -0.81986 h 0.79022 v 0.81986 h 3.83258 v 0.64205 h -2.69663 v 1.34338 q 0,0.69145 -0.14817,0.86925 -0.14817,0.1778 -0.74083,0.1778 -0.19756,0 -0.95815,-0.0494 l -0.0395,-0.63218 q 0.64206,0.0494 0.81986,0.0494 0.24694,0 0.28645,-0.0494 0.0395,-0.0494 0.0395,-0.33584 z m 1.99531,4.78084 q -0.27658,-0.33584 -0.40499,-0.49389 l 0.46426,-0.29633 h -2.46944 v 1.0668 q 1.41252,-0.13829 2.41017,-0.27658 z m -2.41017,-1.38289 h 2.46944 v -1.08655 h -2.46944 z m -0.75072,0 v -1.08655 h -2.46944 v 1.08655 z"
         style="fill:#4d4d4d;stroke-width:0.26458332"
         id="path936"
         inkscape:connector-curvature="0" />
      <path
         d="m 337.4753,131.87159 q 0,2.53859 -0.0988,3.72392 -0.0889,1.18533 -0.2667,1.48167 -0.1778,0.30621 -0.57291,0.30621 -0.33585,0 -1.12607,-0.0988 v -0.7112 q 0.57291,0.0988 0.82973,0.0988 0.11854,0 0.18768,-0.0593 0.0692,-0.0593 0.13829,-0.28645 0.0692,-0.23707 0.10866,-0.67169 0.0395,-0.43462 0.0593,-1.20509 0.0198,-0.77047 0.0198,-1.90641 h -1.12607 q -0.0988,1.84714 -0.3556,2.97321 -0.25682,1.12607 -0.78034,2.03482 l -0.57291,-0.51364 q 0.52352,-0.96803 0.76059,-2.35091 0.23706,-1.38289 0.24694,-4.0894 h -0.90876 v -0.67169 h 1.45204 v -1.31375 h 0.76059 v 1.31375 h 1.54093 v 0.67169 h -2.10397 q 0,0.48401 -0.0197,1.27423 z m 0.38523,2.63737 v -0.67169 h 2.37067 q 0.01,-0.079 0.01,-0.24695 v -1.3335 h -0.83961 q -0.50376,0.70132 -1.02729,1.17546 l -0.54327,-0.45438 q 1.05692,-0.95814 1.71873,-2.33116 l 0.67169,0.20744 q -0.1778,0.37535 -0.38523,0.74083 h 3.06211 v 0.66181 h -1.87678 v 1.3335 0.24695 h 2.07433 v 0.67169 h -1.97555 q 0.36547,1.62983 2.1336,2.39042 l -0.30621,0.68156 q -0.78035,-0.30621 -1.39277,-0.93838 -0.61242,-0.63218 -0.93839,-1.44216 -0.42474,0.82973 -1.19521,1.46191 -0.77047,0.63218 -1.70886,0.92851 l -0.28645,-0.69144 q 2.18299,-0.67169 2.68675,-2.39042 z m -0.59267,-3.04236 q 1.13595,-1.23472 1.75825,-2.94358 l 0.70132,0.16792 q -0.0988,0.28646 -0.33584,0.83962 h 3.70416 v 0.66181 h -4.03013 q -0.49389,0.89887 -1.18533,1.66934 z"
         style="fill:#4d4d4d;stroke-width:0.26458332"
         id="path938"
         inkscape:connector-curvature="0" />
    </g>
    <text
       xml:space="preserve"
       style="font-style:normal;font-variant:normal;font-weight:normal;font-stretch:normal;font-size:9.8777771px;line-height:1.25;font-family:Arvo;-inkscape-font-specification:Arvo;letter-spacing:0px;word-spacing:0px;fill:#ff0000;fill-opacity:1;stroke:#ff0000;stroke-width:0.26458332"
       x="361.69052"
       y="148.66951"
       id="text944"><tspan
         sodipodi:role="line"
         id="tspan942"
         x="361.69052"
         y="148.66951"
         style="font-style:normal;font-variant:normal;font-weight:normal;font-stretch:normal;font-family:'VL PGothic';-inkscape-font-specification:'VL PGothic';fill:#ff0000;fill-opacity:1;stroke:#ff0000;stroke-width:0.26458332">banzoku</tspan></text>
    <g
       transform="translate(48.669284,23.621517)"
       id="g950"
       style="font-style:normal;font-variant:normal;font-weight:normal;font-stretch:normal;font-size:9.8777771px;line-height:1.25;font-family:Arvo;-inkscape-font-specification:Arvo;letter-spacing:0px;word-spacing:0px;opacity:0.31100003;fill:#4d4d4d;fill-opacity:1;stroke:none;stroke-width:0.26458332"
       aria-label="蛮族">
      <path
         inkscape:connector-curvature="0"
         id="path946"
         style="fill:#4d4d4d;stroke-width:0.26458332"
         d="m 332.33885,133.11619 v 2.27189 h -0.51364 q 0.73095,0.91863 1.43228,1.92616 l -0.60255,0.34573 q -0.40499,-0.57291 -0.67169,-0.90876 -3.81282,0.54328 -7.40833,0.68157 l -0.0395,-0.64206 q 1.75824,-0.0691 3.84245,-0.25682 v -1.14582 h -2.46944 v 0.5334 h -0.74083 v -2.80529 h 3.21027 v -0.52352 h 0.75072 v 0.52352 z m -1.70885,-2.43981 0.58279,-0.39511 q 1.11618,0.9779 1.93604,2.12372 l -0.60254,0.38523 q -0.75072,-1.05692 -1.91629,-2.11384 z m -5.67972,2.16323 -0.58279,-0.45438 q 1.11619,-0.87912 1.6891,-2.08421 l 0.67169,0.27658 q -0.58279,1.30387 -1.778,2.26201 z m 4.59316,-1.44215 v -1.37302 h -1.20509 q -0.079,1.01742 -0.48401,1.70886 -0.40499,0.69144 -1.23472,1.26436 l -0.55316,-0.47414 q 0.75072,-0.50376 1.10632,-1.07668 0.3556,-0.57291 0.43462,-1.4224 h -3.08187 v -0.64205 h 3.83258 v -0.81986 h 0.79022 v 0.81986 h 3.83258 v 0.64205 h -2.69663 v 1.34338 q 0,0.69145 -0.14817,0.86925 -0.14817,0.1778 -0.74083,0.1778 -0.19756,0 -0.95815,-0.0494 l -0.0395,-0.63218 q 0.64206,0.0494 0.81986,0.0494 0.24694,0 0.28645,-0.0494 0.0395,-0.0494 0.0395,-0.33584 z m 1.99531,4.78084 q -0.27658,-0.33584 -0.40499,-0.49389 l 0.46426,-0.29633 h -2.46944 v 1.0668 q 1.41252,-0.13829 2.41017,-0.27658 z m -2.41017,-1.38289 h 2.46944 v -1.08655 h -2.46944 z m -0.75072,0 v -1.08655 h -2.46944 v 1.08655 z" />
      <path
         inkscape:connector-curvature="0"
         id="path948"
         style="fill:#4d4d4d;stroke-width:0.26458332"
         d="m 337.4753,131.87159 q 0,2.53859 -0.0988,3.72392 -0.0889,1.18533 -0.2667,1.48167 -0.1778,0.30621 -0.57291,0.30621 -0.33585,0 -1.12607,-0.0988 v -0.7112 q 0.57291,0.0988 0.82973,0.0988 0.11854,0 0.18768,-0.0593 0.0692,-0.0593 0.13829,-0.28645 0.0692,-0.23707 0.10866,-0.67169 0.0395,-0.43462 0.0593,-1.20509 0.0198,-0.77047 0.0198,-1.90641 h -1.12607 q -0.0988,1.84714 -0.3556,2.97321 -0.25682,1.12607 -0.78034,2.03482 l -0.57291,-0.51364 q 0.52352,-0.96803 0.76059,-2.35091 0.23706,-1.38289 0.24694,-4.0894 h -0.90876 v -0.67169 h 1.45204 v -1.31375 h 0.76059 v 1.31375 h 1.54093 v 0.67169 h -2.10397 q 0,0.48401 -0.0197,1.27423 z m 0.38523,2.63737 v -0.67169 h 2.37067 q 0.01,-0.079 0.01,-0.24695 v -1.3335 h -0.83961 q -0.50376,0.70132 -1.02729,1.17546 l -0.54327,-0.45438 q 1.05692,-0.95814 1.71873,-2.33116 l 0.67169,0.20744 q -0.1778,0.37535 -0.38523,0.74083 h 3.06211 v 0.66181 h -1.87678 v 1.3335 0.24695 h 2.07433 v 0.67169 h -1.97555 q 0.36547,1.62983 2.1336,2.39042 l -0.30621,0.68156 q -0.78035,-0.30621 -1.39277,-0.93838 -0.61242,-0.63218 -0.93839,-1.44216 -0.42474,0.82973 -1.19521,1.46191 -0.77047,0.63218 -1.70886,0.92851 l -0.28645,-0.69144 q 2.18299,-0.67169 2.68675,-2.39042 z m -0.59267,-3.04236 q 1.13595,-1.23472 1.75825,-2.94358 l 0.70132,0.16792 q -0.0988,0.28646 -0.33584,0.83962 h 3.70416 v 0.66181 h -4.03013 q -0.49389,0.89887 -1.18533,1.66934 z" />
    </g>
    <g
       aria-label="banzoku"
       style="font-style:normal;font-variant:normal;font-weight:normal;font-stretch:normal;font-size:9.8777771px;line-height:1.25;font-family:Arvo;-inkscape-font-specification:Arvo;letter-spacing:0px;word-spacing:0px;fill:#ff0000;fill-opacity:1;stroke:#ff0000;stroke-width:0.26458332"
       id="text954">
      <path
         d="m 364.85133,153.05824 v 2.74602 h 0.0197 q 0.6223,-0.77047 1.61996,-0.77047 0.95814,0 1.5113,0.70132 0.56303,0.69145 0.56303,1.96568 0,1.23472 -0.57291,1.9558 -0.57291,0.7112 -1.50142,0.7112 -0.98778,0 -1.65947,-0.82973 h -0.0197 l -0.01,0.73095 h -0.7112 v -7.21077 z m 2.96333,4.64255 q 0,-2.07433 -1.48167,-2.07433 -0.58278,0 -1.03716,0.40499 -0.4445,0.40498 -0.4445,0.90875 v 1.52118 q 0,0.51364 0.45438,0.91863 0.45437,0.39511 1.02728,0.39511 0.70133,0 1.08656,-0.52352 0.39511,-0.52352 0.39511,-1.55081 z"
         style="font-style:normal;font-variant:normal;font-weight:normal;font-stretch:normal;font-family:'VL PGothic';-inkscape-font-specification:'VL PGothic';fill:#ff0000;fill-opacity:1;stroke:#ff0000;stroke-width:0.26458332"
         id="path956"
         inkscape:connector-curvature="0" />
      <path
         d="m 372.87239,157.55262 h -0.59266 q -0.9779,0 -1.48167,0.31609 -0.49389,0.31609 -0.49389,0.889 0,0.4445 0.25682,0.72108 0.25682,0.2667 0.66181,0.2667 0.7112,0 1.17546,-0.47413 0.47413,-0.47414 0.47413,-1.25448 z m 0,-0.54327 v -0.2667 q 0,-0.60255 -0.27658,-0.83962 -0.27657,-0.24694 -0.9779,-0.24694 -0.86924,0 -1.79775,0.37536 v -0.68157 q 0.889,-0.31609 1.79775,-0.31609 1.12607,0 1.56069,0.42475 0.4445,0.41486 0.4445,1.48166 v 3.32881 h -0.7112 l -0.01,-0.87912 h -0.0198 q -0.58279,0.9779 -1.82739,0.9779 -0.67169,0 -1.09643,-0.42474 -0.41487,-0.42475 -0.41487,-1.12607 0,-0.81986 0.65193,-1.31375 0.65194,-0.49388 2.08422,-0.49388 z"
         style="font-style:normal;font-variant:normal;font-weight:normal;font-stretch:normal;font-family:'VL PGothic';-inkscape-font-specification:'VL PGothic';fill:#ff0000;fill-opacity:1;stroke:#ff0000;stroke-width:0.26458332"
         id="path958"
         inkscape:connector-curvature="0" />
      <path
         d="m 375.80717,155.13257 0.01,0.77046 h 0.0198 q 0.72107,-0.86924 1.69897,-0.86924 0.89888,0 1.30387,0.50377 0.40499,0.50376 0.40499,1.66934 v 3.06211 h -0.74083 v -2.96333 q 0,-0.9779 -0.2667,-1.32362 -0.2667,-0.3556 -0.89888,-0.3556 -0.51365,0 -0.99766,0.47413 -0.48401,0.47413 -0.48401,0.98778 v 3.18064 h -0.76059 v -5.13644 z"
         style="font-style:normal;font-variant:normal;font-weight:normal;font-stretch:normal;font-family:'VL PGothic';-inkscape-font-specification:'VL PGothic';fill:#ff0000;fill-opacity:1;stroke:#ff0000;stroke-width:0.26458332"
         id="path960"
         inkscape:connector-curvature="0" />
      <path
         d="m 380.7101,155.13257 h 3.8227 v 0.59266 l -2.91395,3.93136 v 0.0198 h 2.91395 v 0.59266 h -3.8227 v -0.59266 l 2.91394,-3.93136 v -0.0198 h -2.91394 z"
         style="font-style:normal;font-variant:normal;font-weight:normal;font-stretch:normal;font-family:'VL PGothic';-inkscape-font-specification:'VL PGothic';fill:#ff0000;fill-opacity:1;stroke:#ff0000;stroke-width:0.26458332"
         id="path962"
         inkscape:connector-curvature="0" />
      <path
         d="m 387.95321,155.03379 q 1.11619,0 1.73849,0.70132 0.6223,0.69145 0.6223,1.96568 0,1.27423 -0.6223,1.97556 -0.6223,0.69144 -1.73849,0.69144 -1.10631,0 -1.72861,-0.70132 -0.6223,-0.70132 -0.6223,-1.96568 0,-1.26436 0.6223,-1.96568 0.6223,-0.70132 1.72861,-0.70132 z m -1.58044,2.667 q 0,2.07433 1.58044,2.07433 1.58045,0 1.58045,-2.07433 0,-2.07433 -1.58045,-2.07433 -1.58044,0 -1.58044,2.07433 z"
         style="font-style:normal;font-variant:normal;font-weight:normal;font-stretch:normal;font-family:'VL PGothic';-inkscape-font-specification:'VL PGothic';fill:#ff0000;fill-opacity:1;stroke:#ff0000;stroke-width:0.26458332"
         id="path964"
         inkscape:connector-curvature="0" />
      <path
         d="m 392.3046,153.05824 v 4.36597 h 0.0198 l 2.47932,-2.29164 h 0.93839 l -2.69663,2.46944 2.71639,2.667 h -0.92852 l -2.50895,-2.4892 h -0.0198 v 2.4892 h -0.76058 v -7.21077 z"
         style="font-style:normal;font-variant:normal;font-weight:normal;font-stretch:normal;font-family:'VL PGothic';-inkscape-font-specification:'VL PGothic';fill:#ff0000;fill-opacity:1;stroke:#ff0000;stroke-width:0.26458332"
         id="path966"
         inkscape:connector-curvature="0" />
      <path
         d="m 396.76998,155.13257 h 0.74083 v 3.09174 q 0,0.889 0.2667,1.22485 0.2667,0.32596 0.84949,0.32596 0.5334,0 1.00753,-0.45437 0.47414,-0.46426 0.47414,-1.00754 v -3.18064 h 0.76058 v 5.13644 h -0.7112 l -0.01,-0.77046 h -0.0198 q -0.69144,0.86924 -1.69898,0.86924 -0.85936,0 -1.26435,-0.47413 -0.39511,-0.47414 -0.39511,-1.57057 z"
         style="font-style:normal;font-variant:normal;font-weight:normal;font-stretch:normal;font-family:'VL PGothic';-inkscape-font-specification:'VL PGothic';fill:#ff0000;fill-opacity:1;stroke:#ff0000;stroke-width:0.26458332"
         id="path968"
         inkscape:connector-curvature="0" />
    </g>
    <g
       id="g1004">
      <g
         transform="translate(81.035624,-20.718498)"
         id="g975"
         style="font-style:normal;font-variant:normal;font-weight:normal;font-stretch:normal;font-size:9.8777771px;line-height:1.25;font-family:Arvo;-inkscape-font-specification:Arvo;letter-spacing:0px;word-spacing:0px;opacity:0.31100003;fill:#4d4d4d;fill-opacity:1;stroke:none;stroke-width:0.26458332"
         aria-label="蛮族">
        <path
           inkscape:connector-curvature="0"
           id="path971"
           style="fill:#4d4d4d;stroke-width:0.26458332"
           d="m 332.33885,133.11619 v 2.27189 h -0.51364 q 0.73095,0.91863 1.43228,1.92616 l -0.60255,0.34573 q -0.40499,-0.57291 -0.67169,-0.90876 -3.81282,0.54328 -7.40833,0.68157 l -0.0395,-0.64206 q 1.75824,-0.0691 3.84245,-0.25682 v -1.14582 h -2.46944 v 0.5334 h -0.74083 v -2.80529 h 3.21027 v -0.52352 h 0.75072 v 0.52352 z m -1.70885,-2.43981 0.58279,-0.39511 q 1.11618,0.9779 1.93604,2.12372 l -0.60254,0.38523 q -0.75072,-1.05692 -1.91629,-2.11384 z m -5.67972,2.16323 -0.58279,-0.45438 q 1.11619,-0.87912 1.6891,-2.08421 l 0.67169,0.27658 q -0.58279,1.30387 -1.778,2.26201 z m 4.59316,-1.44215 v -1.37302 h -1.20509 q -0.079,1.01742 -0.48401,1.70886 -0.40499,0.69144 -1.23472,1.26436 l -0.55316,-0.47414 q 0.75072,-0.50376 1.10632,-1.07668 0.3556,-0.57291 0.43462,-1.4224 h -3.08187 v -0.64205 h 3.83258 v -0.81986 h 0.79022 v 0.81986 h 3.83258 v 0.64205 h -2.69663 v 1.34338 q 0,0.69145 -0.14817,0.86925 -0.14817,0.1778 -0.74083,0.1778 -0.19756,0 -0.95815,-0.0494 l -0.0395,-0.63218 q 0.64206,0.0494 0.81986,0.0494 0.24694,0 0.28645,-0.0494 0.0395,-0.0494 0.0395,-0.33584 z m 1.99531,4.78084 q -0.27658,-0.33584 -0.40499,-0.49389 l 0.46426,-0.29633 h -2.46944 v 1.0668 q 1.41252,-0.13829 2.41017,-0.27658 z m -2.41017,-1.38289 h 2.46944 v -1.08655 h -2.46944 z m -0.75072,0 v -1.08655 h -2.46944 v 1.08655 z" />
        <path
           inkscape:connector-curvature="0"
           id="path973"
           style="fill:#4d4d4d;stroke-width:0.26458332"
           d="m 337.4753,131.87159 q 0,2.53859 -0.0988,3.72392 -0.0889,1.18533 -0.2667,1.48167 -0.1778,0.30621 -0.57291,0.30621 -0.33585,0 -1.12607,-0.0988 v -0.7112 q 0.57291,0.0988 0.82973,0.0988 0.11854,0 0.18768,-0.0593 0.0692,-0.0593 0.13829,-0.28645 0.0692,-0.23707 0.10866,-0.67169 0.0395,-0.43462 0.0593,-1.20509 0.0198,-0.77047 0.0198,-1.90641 h -1.12607 q -0.0988,1.84714 -0.3556,2.97321 -0.25682,1.12607 -0.78034,2.03482 l -0.57291,-0.51364 q 0.52352,-0.96803 0.76059,-2.35091 0.23706,-1.38289 0.24694,-4.0894 h -0.90876 v -0.67169 h 1.45204 v -1.31375 h 0.76059 v 1.31375 h 1.54093 v 0.67169 h -2.10397 q 0,0.48401 -0.0197,1.27423 z m 0.38523,2.63737 v -0.67169 h 2.37067 q 0.01,-0.079 0.01,-0.24695 v -1.3335 h -0.83961 q -0.50376,0.70132 -1.02729,1.17546 l -0.54327,-0.45438 q 1.05692,-0.95814 1.71873,-2.33116 l 0.67169,0.20744 q -0.1778,0.37535 -0.38523,0.74083 h 3.06211 v 0.66181 h -1.87678 v 1.3335 0.24695 h 2.07433 v 0.67169 h -1.97555 q 0.36547,1.62983 2.1336,2.39042 l -0.30621,0.68156 q -0.78035,-0.30621 -1.39277,-0.93838 -0.61242,-0.63218 -0.93839,-1.44216 -0.42474,0.82973 -1.19521,1.46191 -0.77047,0.63218 -1.70886,0.92851 l -0.28645,-0.69144 q 2.18299,-0.67169 2.68675,-2.39042 z m -0.59267,-3.04236 q 1.13595,-1.23472 1.75825,-2.94358 l 0.70132,0.16792 q -0.0988,0.28646 -0.33584,0.83962 h 3.70416 v 0.66181 h -4.03013 q -0.49389,0.89887 -1.18533,1.66934 z" />
      </g>
      <g
         transform="translate(32.36634,-44.340015)"
         aria-label="banzoku"
         style="font-style:normal;font-variant:normal;font-weight:normal;font-stretch:normal;font-size:9.8777771px;line-height:1.25;font-family:Arvo;-inkscape-font-specification:Arvo;letter-spacing:0px;word-spacing:0px;fill:#ff0000;fill-opacity:1;stroke:#ff0000;stroke-width:0.26458332"
         id="g991">
        <path
           inkscape:connector-curvature="0"
           d="m 364.85133,153.05824 v 2.74602 h 0.0197 q 0.6223,-0.77047 1.61996,-0.77047 0.95814,0 1.5113,0.70132 0.56303,0.69145 0.56303,1.96568 0,1.23472 -0.57291,1.9558 -0.57291,0.7112 -1.50142,0.7112 -0.98778,0 -1.65947,-0.82973 h -0.0197 l -0.01,0.73095 h -0.7112 v -7.21077 z m 2.96333,4.64255 q 0,-2.07433 -1.48167,-2.07433 -0.58278,0 -1.03716,0.40499 -0.4445,0.40498 -0.4445,0.90875 v 1.52118 q 0,0.51364 0.45438,0.91863 0.45437,0.39511 1.02728,0.39511 0.70133,0 1.08656,-0.52352 0.39511,-0.52352 0.39511,-1.55081 z"
           style="font-style:normal;font-variant:normal;font-weight:normal;font-stretch:normal;font-family:'VL PGothic';-inkscape-font-specification:'VL PGothic';fill:#ff0000;fill-opacity:1;stroke:#ff0000;stroke-width:0.26458332"
           id="path977" />
        <path
           inkscape:connector-curvature="0"
           d="m 372.87239,157.55262 h -0.59266 q -0.9779,0 -1.48167,0.31609 -0.49389,0.31609 -0.49389,0.889 0,0.4445 0.25682,0.72108 0.25682,0.2667 0.66181,0.2667 0.7112,0 1.17546,-0.47413 0.47413,-0.47414 0.47413,-1.25448 z m 0,-0.54327 v -0.2667 q 0,-0.60255 -0.27658,-0.83962 -0.27657,-0.24694 -0.9779,-0.24694 -0.86924,0 -1.79775,0.37536 v -0.68157 q 0.889,-0.31609 1.79775,-0.31609 1.12607,0 1.56069,0.42475 0.4445,0.41486 0.4445,1.48166 v 3.32881 h -0.7112 l -0.01,-0.87912 h -0.0198 q -0.58279,0.9779 -1.82739,0.9779 -0.67169,0 -1.09643,-0.42474 -0.41487,-0.42475 -0.41487,-1.12607 0,-0.81986 0.65193,-1.31375 0.65194,-0.49388 2.08422,-0.49388 z"
           style="font-style:normal;font-variant:normal;font-weight:normal;font-stretch:normal;font-family:'VL PGothic';-inkscape-font-specification:'VL PGothic';fill:#ff0000;fill-opacity:1;stroke:#ff0000;stroke-width:0.26458332"
           id="path979" />
        <path
           inkscape:connector-curvature="0"
           d="m 375.80717,155.13257 0.01,0.77046 h 0.0198 q 0.72107,-0.86924 1.69897,-0.86924 0.89888,0 1.30387,0.50377 0.40499,0.50376 0.40499,1.66934 v 3.06211 h -0.74083 v -2.96333 q 0,-0.9779 -0.2667,-1.32362 -0.2667,-0.3556 -0.89888,-0.3556 -0.51365,0 -0.99766,0.47413 -0.48401,0.47413 -0.48401,0.98778 v 3.18064 h -0.76059 v -5.13644 z"
           style="font-style:normal;font-variant:normal;font-weight:normal;font-stretch:normal;font-family:'VL PGothic';-inkscape-font-specification:'VL PGothic';fill:#ff0000;fill-opacity:1;stroke:#ff0000;stroke-width:0.26458332"
           id="path981" />
        <path
           inkscape:connector-curvature="0"
           d="m 380.7101,155.13257 h 3.8227 v 0.59266 l -2.91395,3.93136 v 0.0198 h 2.91395 v 0.59266 h -3.8227 v -0.59266 l 2.91394,-3.93136 v -0.0198 h -2.91394 z"
           style="font-style:normal;font-variant:normal;font-weight:normal;font-stretch:normal;font-family:'VL PGothic';-inkscape-font-specification:'VL PGothic';fill:#ff0000;fill-opacity:1;stroke:#ff0000;stroke-width:0.26458332"
           id="path983" />
        <path
           inkscape:connector-curvature="0"
           d="m 387.95321,155.03379 q 1.11619,0 1.73849,0.70132 0.6223,0.69145 0.6223,1.96568 0,1.27423 -0.6223,1.97556 -0.6223,0.69144 -1.73849,0.69144 -1.10631,0 -1.72861,-0.70132 -0.6223,-0.70132 -0.6223,-1.96568 0,-1.26436 0.6223,-1.96568 0.6223,-0.70132 1.72861,-0.70132 z m -1.58044,2.667 q 0,2.07433 1.58044,2.07433 1.58045,0 1.58045,-2.07433 0,-2.07433 -1.58045,-2.07433 -1.58044,0 -1.58044,2.07433 z"
           style="font-style:normal;font-variant:normal;font-weight:normal;font-stretch:normal;font-family:'VL PGothic';-inkscape-font-specification:'VL PGothic';fill:#ff0000;fill-opacity:1;stroke:#ff0000;stroke-width:0.26458332"
           id="path985" />
        <path
           inkscape:connector-curvature="0"
           d="m 392.3046,153.05824 v 4.36597 h 0.0198 l 2.47932,-2.29164 h 0.93839 l -2.69663,2.46944 2.71639,2.667 h -0.92852 l -2.50895,-2.4892 h -0.0198 v 2.4892 h -0.76058 v -7.21077 z"
           style="font-style:normal;font-variant:normal;font-weight:normal;font-stretch:normal;font-family:'VL PGothic';-inkscape-font-specification:'VL PGothic';fill:#ff0000;fill-opacity:1;stroke:#ff0000;stroke-width:0.26458332"
           id="path987" />
        <path
           inkscape:connector-curvature="0"
           d="m 396.76998,155.13257 h 0.74083 v 3.09174 q 0,0.889 0.2667,1.22485 0.2667,0.32596 0.84949,0.32596 0.5334,0 1.00753,-0.45437 0.47414,-0.46426 0.47414,-1.00754 v -3.18064 h 0.76058 v 5.13644 h -0.7112 l -0.01,-0.77046 h -0.0198 q -0.69144,0.86924 -1.69898,0.86924 -0.85936,0 -1.26435,-0.47413 -0.39511,-0.47414 -0.39511,-1.57057 z"
           style="font-style:normal;font-variant:normal;font-weight:normal;font-stretch:normal;font-family:'VL PGothic';-inkscape-font-specification:'VL PGothic';fill:#ff0000;fill-opacity:1;stroke:#ff0000;stroke-width:0.26458332"
           id="path989" />
      </g>
    </g>
  </g>
</svg>
